<svg xmlns="http://www.w3.org/2000/svg" viewBox="0 0 136.72 34.54"><defs><style>.cls-1{fill:#ac27f9;}.cls-2{fill:#fff;}</style></defs><g id="Layer_2" data-name="Layer 2"><g id="BG"><path class="cls-1" d="M21.47,0H14.8L0,24.07S5.57,34.52,18.08,34.54,36.19,24.13,36.19,24.13ZM8.86,24,18.12,8.93,27.33,24Z"/><path class="cls-2" d="M57.33,5.63H53.09L44.77,28.48h4.11l1.74-5.15,9.06,0,1.73,5.15h4.16ZM55.19,9.09l3.38,10.8h-6.8Z"/><path class="cls-2" d="M74.09,12a4.08,4.08,0,0,0-2.84,3.21v-3H67.68l0,16.32h3.68V19.45a4.42,4.42,0,0,1,5.51-4.39V11.9A8.48,8.48,0,0,0,74.09,12Z"/><path class="cls-2" d="M120.17,21.31c-.1,2.25-.87,4.43-3.72,4.62-3.14.21-3.48-2.2-3.47-4.37V12.17h-3.71V22.92c0,1.76.47,6,5.53,6,3.23,0,4.81-1.51,5.55-2.68V28.5h3.44l0-16.32h-3.63Z"/><path class="cls-2" d="M84.66,23.88V15h4.25V12H84.68V7.11H81.12v4.84H78.35V15H81.1v9c0,2.57,1,4.76,5.14,4.76a10.47,10.47,0,0,0,2.69-.28V25.58a18.67,18.67,0,0,1-2.15.18A1.89,1.89,0,0,1,84.66,23.88Z"/><path class="cls-2" d="M100.61,11.71a6.09,6.09,0,0,0-5.5,2.76l0-8.84H91.44l0,22.87h3.69V19.83c0-2.43.74-4.67,3.77-4.87s3.47,2,3.47,4.19l0,9.36h3.81l0-11C106.15,16.12,105.66,11.72,100.61,11.71Z"/><path class="cls-2" d="M134,12a4.08,4.08,0,0,0-2.84,3.21v-3h-3.57l0,16.32h3.68V19.45a4.42,4.42,0,0,1,5.51-4.39V11.9A8.48,8.48,0,0,0,134,12Z"/></g></g></svg>