<?xml version="1.0" encoding="utf-8"?>
<!-- Generator: Adobe Illustrator 26.1.0, SVG Export Plug-In . SVG Version: 6.00 Build 0)  -->
<svg version="1.1" id="Artwork" xmlns="http://www.w3.org/2000/svg" xmlns:xlink="http://www.w3.org/1999/xlink" x="0px" y="0px"
	 viewBox="0 0 455.3 218.8" style="enable-background:new 0 0 455.3 218.8;" xml:space="preserve">
<style type="text/css">
	.st0{fill:#AC37F6;}
</style>
<g>
	<g>
		<path d="M201.5,82.4l-9.9,0l-19.3,53l9.5,0l4-11.9l21,0l4,11.9l9.6,0L201.5,82.4z M196.5,90.4l7.8,25.1l-15.8,0L196.5,90.4z"/>
		<path d="M240.4,97.2c-2.6,0.6-5.8,3.3-6.6,7.4l0-7l-8.3,0l-0.1,37.8l8.5,0l0-21c0-3.6,2.7-11.9,12.8-10.2l0-7.3
			C246.8,96.9,243.5,96.5,240.4,97.2z"/>
		<path d="M347.2,118.7c-0.2,5.2-2,10.3-8.6,10.7c-7.3,0.5-8.1-5.1-8.1-10.1l0-21.8l-8.6,0c0,0,0,21.7,0,24.9
			c0,4.1,1.1,13.9,12.8,13.9c7.5,0,11.2-3.5,12.9-6.2l0,5.3l8,0l0.1-37.8l-8.4,0L347.2,118.7z"/>
		<path d="M264.9,124.7l0-20.6l9.8,0l0-7.1l-9.8,0l0-11.2l-8.3,0l0,11.2l-6.4,0l0,7.1l6.4,0l0,20.9c0,6,2.3,11,11.9,11
			c4,0,6.3-0.6,6.3-0.6l0-6.7c0,0-2.9,0.4-5,0.4C267.9,129.1,264.9,128.3,264.9,124.7z"/>
		<path d="M301.9,96.5c-7.5,0-11,3.7-12.7,6.4l0-20.5l-8.6,0l-0.1,53l8.6,0l0-20.1c0-5.6,1.7-10.8,8.7-11.3c7.3-0.5,8.1,4.7,8.1,9.7
			l0,21.7l8.8,0c0,0,0-22.2,0-25.5C314.7,106.7,313.6,96.5,301.9,96.5z"/>
		<path d="M379.2,97.2c-2.6,0.6-5.8,3.3-6.6,7.4l0-7l-8.3,0l-0.1,37.8l8.5,0l0-21c0-3.6,2.7-11.9,12.8-10.2l0-7.3
			C385.6,96.9,382.4,96.5,379.2,97.2z"/>
	</g>
	<g>
		<path class="st0" d="M118.4,69.3h-15.4l-34.4,56c0,0,13,24.1,42,24.1c29,0,42-24.1,42-24.1L118.4,69.3z M89.3,125l21.3-35l21.5,35
			H89.3z"/>
	</g>
</g>
</svg>
